<svg xmlns="http://www.w3.org/2000/svg" xmlns:xlink="http://www.w3.org/1999/xlink" xmlns:inkscape="http://www.inkscape.org/namespaces/inkscape" version="1.1" width="680.315" height="680.315" viewBox="0 0 680.315 680.315">
<defs>
<clipPath id="clip_1">
<path transform="matrix(1,0,0,-1,0,680.315)" d="M0 680.315H680.315V0H0Z"/>
</clipPath>
</defs>
<g inkscape:groupmode="layer" inkscape:label="Layer 1">
<g clip-path="url(#clip_1)">
<path transform="matrix(1,0,0,-1,340.1574,56.692934)" d="M0 0C-156.553 0-283.465-126.911-283.465-283.465-283.465-440.018-156.553-566.929 0-566.929 156.553-566.929 283.465-440.018 283.465-283.465 283.465-126.911 156.553 0 0 0" fill="#f47736"/>
<path transform="matrix(1,0,0,-1,568.6899,436.1185)" d="M0 0C-.348 .791-.865 1.479-1.549 2.066-2.234 2.652-3.074 3.155-4.07 3.574-5.067 3.993-6.201 4.371-7.473 4.706-8.554 4.993-9.448 5.245-10.157 5.46-10.865 5.675-11.423 5.903-11.832 6.143-12.24 6.381-12.522 6.651-12.678 6.951-12.834 7.25-12.912 7.603-12.912 8.011V8.082C-12.912 8.704-12.642 9.225-12.103 9.644-11.565 10.064-10.756 10.273-9.679 10.273-8.601 10.273-7.524 10.051-6.446 9.609-5.369 9.166-4.267 8.561-3.142 7.795L-.268 11.961C-1.561 12.991-2.98 13.781-4.524 14.333-6.069 14.882-7.763 15.159-9.607 15.159-10.9 15.159-12.084 14.979-13.157 14.619-14.231 14.261-15.153 13.745-15.927 13.075-16.7 12.404-17.301 11.608-17.729 10.686-18.158 9.765-18.372 8.729-18.372 7.579V7.507C-18.372 6.262-18.173 5.22-17.777 4.383-17.381 3.544-16.823 2.844-16.102 2.281-15.382 1.719-14.506 1.245-13.473 .863-12.441 .479-11.289 .132-10.015-.179-8.96-.443-8.101-.695-7.441-.933-6.78-1.173-6.264-1.413-5.892-1.652-5.52-1.892-5.268-2.149-5.135-2.424-5.004-2.7-4.938-3.017-4.938-3.376V-3.448C-4.938-4.19-5.255-4.771-5.889-5.19-6.524-5.609-7.416-5.818-8.565-5.818-10.002-5.818-11.326-5.543-12.535-4.992-13.744-4.442-14.923-3.699-16.072-2.765L-19.341-6.68C-17.832-8.046-16.157-9.057-14.312-9.715-12.469-10.374-10.589-10.704-8.673-10.704-7.308-10.704-6.065-10.529-4.943-10.183-3.822-9.836-2.856-9.333-2.048-8.674-1.238-8.016-.609-7.201-.156-6.231 .295-5.262 .522-4.154 .522-2.909V-2.837C.522-1.736 .347-.79 0 0M-56.732-.143H-44.879V4.778H-56.732V9.878H-43.262V14.799H-62.192V-10.344H-43.083V-5.423H-56.732ZM-94.159-.682-105.941 14.799H-111.041V-10.344H-105.581V5.64L-93.405-10.344H-88.7V14.799H-94.159ZM-142.218 2.227C-142.218 3.305-142.404 4.322-142.775 5.281-143.147 6.238-143.673 7.077-144.356 7.795-145.039 8.513-145.846 9.081-146.78 9.501-147.714 9.92-148.732 10.129-149.834 10.129-150.96 10.129-151.983 9.926-152.905 9.519-153.827 9.111-154.617 8.549-155.275 7.831-155.934 7.113-156.449 6.28-156.82 5.334-157.191 4.388-157.377 3.377-157.377 2.299V2.227C-157.377 1.15-157.191 .132-156.82-.826-156.449-1.784-155.922-2.622-155.239-3.34-154.557-4.058-153.755-4.628-152.833-5.046-151.911-5.465-150.888-5.675-149.762-5.675-148.66-5.675-147.642-5.472-146.708-5.064-145.774-4.657-144.979-4.094-144.32-3.376-143.662-2.658-143.147-1.826-142.775-.88-142.404 .066-142.218 1.078-142.218 2.156ZM-137.423 7.346C-136.766 5.777-136.436 4.095-136.436 2.299V2.227C-136.436 .431-136.772-1.251-137.442-2.819-138.113-4.388-139.04-5.765-140.225-6.95-141.411-8.135-142.824-9.069-144.463-9.751-146.104-10.434-147.894-10.776-149.834-10.776-151.773-10.776-153.557-10.434-155.186-9.751-156.814-9.069-158.221-8.148-159.406-6.986-160.591-5.825-161.513-4.46-162.172-2.891-162.831-1.323-163.159 .36-163.159 2.156V2.227C-163.159 4.023-162.824 5.705-162.154 7.274-161.484 8.842-160.556 10.22-159.37 11.404-158.185 12.59-156.772 13.524-155.132 14.206-153.491 14.888-151.702 15.23-149.762 15.23-147.822 15.23-146.038 14.888-144.41 14.206-142.781 13.524-141.375 12.601-140.189 11.44-139.004 10.279-138.083 8.914-137.423 7.346M-194.338-10.344H-188.806V14.799H-194.338ZM-221.947 2.066C-222.631 2.652-223.471 3.155-224.467 3.574-225.465 3.993-226.598 4.371-227.871 4.706-228.952 4.993-229.846 5.245-230.554 5.46-231.263 5.675-231.821 5.903-232.229 6.143-232.638 6.381-232.919 6.651-233.076 6.951-233.231 7.25-233.309 7.603-233.309 8.011V8.082C-233.309 8.704-233.04 9.225-232.501 9.644-231.962 10.064-231.154 10.273-230.077 10.273-228.999 10.273-227.922 10.051-226.844 9.609-225.767 9.166-224.665 8.561-223.539 7.795L-220.667 11.961C-221.959 12.991-223.378 13.781-224.921 14.333-226.467 14.882-228.161 15.159-230.005 15.159-231.298 15.159-232.481 14.979-233.555 14.619-234.628 14.261-235.552 13.745-236.325 13.075-237.098 12.404-237.699 11.608-238.127 10.686-238.555 9.765-238.769 8.729-238.769 7.579V7.507C-238.769 6.262-238.571 5.22-238.175 4.383-237.779 3.544-237.221 2.844-236.5 2.281-235.78 1.719-234.904 1.245-233.871 .863-232.838 .479-231.686 .132-230.413-.179-229.357-.443-228.499-.695-227.838-.933-227.179-1.173-226.661-1.413-226.289-1.652-225.918-1.892-225.665-2.149-225.534-2.424-225.402-2.7-225.335-3.017-225.335-3.376V-3.448C-225.335-4.19-225.653-4.771-226.288-5.19-226.923-5.609-227.814-5.818-228.963-5.818-230.4-5.818-231.723-5.543-232.932-4.992-234.142-4.442-235.321-3.699-236.47-2.765L-239.739-6.68C-238.23-8.046-236.554-9.057-234.71-9.715-232.866-10.374-230.987-10.704-229.071-10.704-227.707-10.704-226.463-10.529-225.341-10.183-224.22-9.836-223.254-9.333-222.445-8.674-221.637-8.016-221.007-7.201-220.554-6.231-220.102-5.262-219.876-4.154-219.876-2.909V-2.837C-219.876-1.736-220.051-.79-220.398 0-220.746 .791-221.263 1.479-221.947 2.066M-269.12 6.215C-269.12 7.412-269.504 8.31-270.27 8.909-271.036 9.507-272.101 9.807-273.466 9.807H-278.962V2.587H-273.359C-271.994 2.587-270.947 2.91-270.216 3.557-269.486 4.203-269.12 5.065-269.12 6.143ZM-268.905-1.365-262.763-10.344H-269.228L-274.616-2.298H-274.688-278.962V-10.344H-284.494V14.799H-272.999C-269.815 14.799-267.373 13.948-265.672 12.249-264.235 10.812-263.517 8.896-263.517 6.502V6.43C-263.517 4.394-264.014 2.736-265.008 1.455-266.002 .174-267.301-.766-268.905-1.365M-323.574-.143H-311.72V4.778H-323.574V9.878H-310.104V14.799H-329.033V-10.344H-309.924V-5.423H-323.574ZM-365.922-2.909-372.495 14.799H-378.601L-368.436-10.524H-363.551L-353.386 14.799H-359.349ZM-408.414-.682-420.195 14.799H-425.296V-10.344H-419.836V5.64L-407.66-10.344H-402.954V14.799H-408.414ZM-457.587 14.799H-452.056V-10.344H-457.587Z" fill="#ffffff"/>
<path transform="matrix(1,0,0,-1,569.0168,348.8009)" d="M0 0-69.588 .014V-8.812H0C4.83-8.812 8.949-10.495 12.349-13.905 15.741-17.281 17.446-21.422 17.446-26.245 17.446-30.941 15.741-35.063 12.349-38.6 8.949-42.01 4.83-43.693 0-43.693H-95.638C-102.954-43.693-109.169-41.125-114.251-36.044-119.358-30.824-121.904-24.613-121.904-17.432L-121.708 34.712C-121.708 42.029-119.152 48.234-114.062 53.321-108.956 58.44-102.841 60.968-95.638 60.968L0 60.787C4.83 60.787 8.949 59.104 12.349 55.694 15.741 52.318 17.446 48.177 17.446 43.354H26.259C26.259 50.66 23.706 56.879 18.617 61.983 13.528 67.068 7.316 69.599 0 69.599L-95.638 69.613C-105.292 69.613-113.529 66.203-120.328 59.422-127.131 52.613-130.523 44.376-130.523 34.712V-17.432C-130.523-27.108-127.131-35.326-120.328-42.141-113.529-48.919-105.292-52.326-95.638-52.326H0C7.316-52.326 13.528-49.786 18.617-44.68 23.706-39.584 26.259-33.433 26.259-26.245 26.259-18.94 23.706-12.72 18.617-7.617 13.528-2.531 7.316 0 0 0M-362.062 69.613H-449.076C-458.752 69.613-466.995 66.203-473.779 59.422-480.587 52.613-483.977 44.376-483.977 34.712V-52.326H-475.355L-475.164 34.712C-475.164 42.029-472.606 48.234-467.514 53.321-462.414 58.44-456.262 60.968-449.076 60.968H-362.062C-354.873 60.968-348.729 58.44-343.641 53.321-338.538 48.234-335.989 42.029-335.989 34.712V26.087C-335.989 18.913-338.538 12.757-343.641 7.661-348.729 2.569-354.873 .014-362.062 .014L-431.647 0C-438.964 0-445.161-2.531-450.263-7.617-455.37-12.72-457.913-18.94-457.913-26.245H-449.076C-449.076-21.422-447.39-17.281-443.993-13.905-440.586-10.495-436.484-8.812-431.647-8.812H-362.062C-352.393-8.812-344.155-5.403-337.364 1.383-330.562 8.162-327.175 16.433-327.175 26.087V34.712C-327.175 44.376-330.562 52.613-337.364 59.422-344.155 66.203-352.393 69.613-362.062 69.613M-160.323 59.422C-153.531 52.613-150.128 44.376-150.128 34.712V26.087C-150.128 16.433-153.531 8.162-160.323 1.383-167.121-5.403-175.351-8.812-185.012-8.812H-254.6C-259.431-8.812-263.549-10.495-266.949-13.905-270.342-17.281-272.046-21.422-272.046-26.245-272.046-30.941-270.342-35.063-266.949-38.6-263.549-42.01-259.431-43.693-254.6-43.693H-158.748V-52.326H-254.6C-261.916-52.326-268.128-49.786-273.217-44.68-278.306-39.584-280.859-33.433-280.859-26.245-280.859-18.94-278.306-12.72-273.217-7.617-268.128-2.531-261.916 0-254.6 0L-185.012 .014C-177.818 .014-171.697 2.569-166.578 7.661-161.502 12.757-158.945 18.913-158.945 26.087V34.712C-158.945 42.029-161.502 48.234-166.578 53.321-171.697 58.44-177.818 60.968-185.012 60.968H-272.046C-279.231 60.968-285.379 58.44-290.47 53.321-295.557 48.234-298.122 42.029-298.122 34.712L-298.302-52.326H-306.925V34.712C-306.925 44.376-303.536 52.613-296.744 59.422-289.959 66.203-281.714 69.613-272.046 69.613H-185.012C-175.351 69.613-167.121 66.203-160.323 59.422" fill="#ffffff"/>
<path transform="matrix(1,0,0,-1,198.0849,127.284)" d="M0 0C-4.677-3.048-10.951-1.712-13.982 2.982-17.045 7.654-15.718 13.931-11.03 16.978-6.346 20.022-.066 18.675 2.969 13.987 6.023 9.287 4.697 3.037 0 0M-24.244-8.485C-27.444-8.485-30.018-5.893-30.018-2.705-30.018 .495-27.444 3.082-24.244 3.082-21.036 3.082-18.446 .495-18.446-2.705-18.446-5.893-21.036-8.485-24.244-8.485" fill="#ffffff"/>
</g>
</g>
</svg>
